<svg enable-background="new 0 0 110 110" height="512" viewBox="0 0 110 110" width="512" xmlns="http://www.w3.org/2000/svg"><path d="m37.665073 51.147362h13.454927v15.816731h-13.454927z" fill="#d6b24e"/><path d="m72.6839371 80.9664841c-.5604324-5.3242874-1.2930984-8.5823822-1.774765-10.3035736-.2860718-1.0224457-.8987427-1.914711-1.7381516-2.5648117-7.0666542-5.4729805-17.6193886-8.7200775-17.6193886-8.7200775l-7.1454277 7.5862579v.0043259l-7.1433678-7.5840034s-10.5528355 3.246994-17.6193905 8.7200813c-.8394089.6500931-1.4520779 1.5422592-1.7381535 2.5648117-.4816608 1.7209778-1.2143326 4.9792862-1.7748642 10.3034668-.9121122 8.6657867-.4559536 14.8989944-.4559536 14.8989944l28.7317295-.0064774h28.7337875c.0000002 0 .4561617-6.2333145-.4560545-14.8989944z" fill="#41a38e"/><path d="m53.6540108 60.0969086c-1.3038292-.4734116-2.1021729-.7181282-2.1021729-.7181282l-7.1450233 7.5871696v.0025406l-7.1429176-7.5844688s-.7983398.2447128-2.1021729.7181282c-.9868851.3530388-2.2626572.8344345-3.6988602 1.4402161l.8628883 10.7436371 1.5107384 2.5443954.3975563 3.2599716c3.3779449 13.0704422 10.1741982 17.7734985 10.1741982 17.7734985l.0006752.0007095c.0453491-.0315399 6.8061867-4.7529297 10.1728172-17.7794495l.3975563-3.260025 1.5106888-2.5443878.8628883-10.7435875c-1.436203-.6057853-2.7119751-1.087181-3.6988601-1.4402198z" fill="#dbd8dd"/><path d="m45.8619537 66.9640884h-3.1140327l-1.5570183 2.9324418 1.5570183 3.9968872h3.1140327l1.5570183-3.9968872z" fill="#344d5b"/><path d="m51.1506729 57.7964287-6.7444649 9.1678886 4.7176285 5.6455384 5.4550972-12.1448403z" fill="#ededed"/><path d="m37.6650734 57.8016891 6.7444649 9.1678849-4.7176285 5.6455383-5.4550972-12.1448364z" fill="#ededed"/><path d="m46.9420853 93.5234222-2.533165 2.341156-2.7346611-3.2431793 1.0390472-19.098526h3.1832619z" fill="#344d5b"/><path d="m32.5099449 75.455246-1.1754742 2.4953766c3.377943 13.0703964 13.0737743 17.9132462 13.0737743 17.9132462-8.4247589-12.5007553-9.1823578-32.8130455-9.2465096-35.7617035-.0080338-.2366791-.0080338-.3610687-.0080338-.3610687l-3.6908264 1.8012886-1.4483013 12.1517296z" fill="#4abba4"/><path d="m56.3058014 75.4499893 1.1754761 2.495369c-3.3779449 13.0704041-13.0744629 17.9206924-13.0744629 17.9206924 8.4247627-12.5007553 9.1830444-32.8204842 9.2471962-35.7691422.0080338-.2366829.0080338-.3610725.0080338-.3610725l3.6908264 1.8012924 1.4482994 12.1517296z" fill="#4abba4"/><path d="m59.5066414 39.2142258c-.9679298-.1874466-2.0290756 1.0880966-2.3700714 2.8488998-.341011 1.7608948.1672325 3.3403664 1.1351624 3.5278168.9679718.1874542 2.0290756-1.0880966 2.3700867-2.8489914.3409957-1.7608032-.1672059-3.3402672-1.1351777-3.5277252z" fill="#feda6f"/><path d="m29.5272102 39.2142258c.9679279-.1874466 2.0290737 1.0880966 2.3700714 2.8488998.341011 1.7608948-.1672325 3.3403664-1.1351624 3.5278168-.9679718.1874542-2.0290737-1.0880966-2.3700867-2.8489914-.3409957-1.7608032.167204-3.3402672 1.1351777-3.5277252z" fill="#feda6f"/><path d="m58.7207794 36.2742004c0-6.0141411-3.3573952-8.8919945-8.3669319-10.3917961v.7236271l-6.1230774-5.1119385c-7.6369896.4852905-14.89254 6.9431152-14.89254 14.7376118 0 1.6818581.2771034 3.5673065.7946968 5.5078888 1.9961472 7.6523552 7.6705894 16.0622215 14.3799286 16.0622215 6.7834282 0 12.5316658-8.6688805 14.4538727-16.4131203.4621735-1.811367-.2459488-3.5245246-.2459488-5.1144943z" fill="#fcd462"/><path d="m57.3529472 19.6430531c-1.6276703-2.2416553-3.6787872-2.2631321-4.8389854-2.0424023.2702446-.9265881.1568947-1.998497-1.3939362-2.5649967-3.0849648-1.126317-18.0742836-2.8539724-21.7818222 6.4584255 0 0-3.2992496 3.2231274.1889915 17.7201614l.0094261-.2562866c.3489914 2.0555267.6451263 3.4448128.6451263 3.4448128h.9258709s.5107784-4.8842087 1.317934-10.2389832c6.3431664.409481 14.0469818-2.3885593 16.8601494-4.3491154 3.3127327-.2278881 6.2689552.0345097 6.8580055 3.876873.8489113 5.5368481 1.3889236 10.7112255 1.3889236 10.7112255h.9258728s.6064682-2.8453827 1.1072273-6.4264488c.0001183-.001194.0003548-.0021477.0004768-.0033417 1.3553966-7.9453067.1941226-13.0144481-2.2132604-16.3299235z" fill="#293b44"/><path d="m79.5335159 70.5194168h-12.5600052c-1.388382 0-2.5175629-1.1291733-2.5175629-2.5175629v-6.4335251c0-1.3883858 1.1291809-2.5175629 2.5175629-2.5175629h12.5600052c1.3883896 0 2.5186768 1.1291771 2.5186768 2.5175629v6.4335251c0 1.3883896-1.1302872 2.5175629-2.5186768 2.5175629zm-12.5600052-9.1902733c-.1323853 0-.2391815.1068001-.2391815.2391853v6.4335251c0 .1323853.1067963.2391891.2391815.2391891h12.5600052c.1323853 0 .240303-.1068039.240303-.2391891v-6.4335251c0-.1323853-.1079178-.2391853-.240303-.2391853z" fill="#293b44"/><path d="m94.4395523 75.4442291v18.0299759c0 1.2879486-1.0440903 2.3320465-2.3320465 2.3320465h-37.7069626c-1.2879524 0-2.3320427-1.0440979-2.3320427-2.3320465v-18.0299759c14.1236839 2.8544235 28.2473641 2.8544235 42.3710518 0z" fill="#963e25"/><path d="m92.1075363 65.3366089h-37.7069282c-1.2879829 0-2.3320541 1.044075-2.3320541 2.3320541v11.2227936c0 .9278183.7521095 1.679863 1.6798592 1.679863h39.011322c.927742 0 1.6798553-.7520447 1.6798553-1.679863v-11.2227936c0-1.2879791-1.0440674-2.3320541-2.3320542-2.3320541z" fill="#d6683d"/><path d="m59.276661 65.336609h1.784015v30.46958h-1.784015z" fill="#293b44"/><path d="m57.5996895 81.975235v3.9388733c0 .2951126.2719994.5343399.6075287.5343399h3.922905c.3355293 0 .6075287-.2392273.6075287-.5343399v-3.9388733c0-.295105-.2719994-.5343399-.6075287-.5343399h-3.922905c-.3355294 0-.6075287.2392349-.6075287.5343399z" fill="#19282f"/><path d="m58.539349 82.316597h3.258645v3.25615h-3.258645z" fill="#293b44"/><path d="m85.447372 65.336609h1.784015v30.46958h-1.784015z" fill="#293b44"/><path d="m83.770401 81.975235v3.9388733c0 .2951126.2719955.5343399.6075287.5343399h3.922905c.3355255 0 .6075287-.2392273.6075287-.5343399v-3.9388733c0-.295105-.2720032-.5343399-.6075287-.5343399h-3.922905c-.3355332 0-.6075287.2392349-.6075287.5343399z" fill="#19282f"/><path d="m84.71006 82.316597h3.258645v3.25615h-3.258645z" fill="#293b44"/></svg>